<svg width="16" height="16" viewBox="0 0 16 16" fill="none" xmlns="http://www.w3.org/2000/svg">
<path d="M2.28571 0.5C2.12571 0.5 1.98857 0.51875 1.85143 0.55625C0.96 0.70625 0.251429 1.2875 0.0685714 2.01875C0 2.13125 0 2.24375 0 2.375V12.6875C0 14.2437 1.53143 15.5 3.42857 15.5H16V13.625H3.42857C2.78857 13.625 2.28571 13.2125 2.28571 12.6875C2.28571 12.1625 2.78857 11.75 3.42857 11.75H16V1.4375C16 0.9125 15.4971 0.5 14.8571 0.5H13.7143V6.125L11.4286 4.25L9.14286 6.125V0.5H2.28571Z" fill="white"/>
</svg>
