<svg width="16" height="18" viewBox="0 0 16 18" fill="none" xmlns="http://www.w3.org/2000/svg">
<path d="M6.58114 0.225159V9.00002H8.77486V0.225159H6.58114ZM3.77319 3.38411L2.93958 4.06416C1.16267 5.46814 0 7.66185 0 10.0969C0 14.3307 3.44413 17.7749 7.678 17.7749C11.9119 17.7749 15.356 14.3307 15.356 10.0969C15.356 7.66185 14.1933 5.46814 12.4164 4.06416L11.5828 3.38411L10.2008 5.0952L11.0344 5.77526C12.3067 6.78436 13.1623 8.3419 13.1623 10.0969C13.1623 13.1461 10.7273 15.5812 7.678 15.5812C4.62874 15.5812 2.19371 13.1461 2.19371 10.0969C2.19371 8.3419 2.98345 6.78436 4.25581 5.77526L5.15523 5.0952L3.77319 3.38411Z" fill="white"/>
</svg>
