<svg width="19" height="20" viewBox="0 0 19 20" fill="none" xmlns="http://www.w3.org/2000/svg">
<path d="M0 0.5V2.875C1.30625 2.875 2.375 3.94375 2.375 5.25V14.75C2.375 16.0563 1.30625 17.125 0 17.125V19.5H13.0625C16.34 19.5 19 16.84 19 13.5625C19 11.1875 17.5987 9.16875 15.58 8.21875C16.2212 7.41125 16.625 6.36625 16.625 5.25C16.625 2.6375 14.5113 0.5 11.875 0.5H0ZM7.125 2.875H9.5C10.8063 2.875 11.875 3.94375 11.875 5.25C11.875 6.55625 10.8063 7.625 9.5 7.625H7.125V2.875ZM7.125 10H10.6875C12.6587 10 14.25 11.5913 14.25 13.5625C14.25 15.5337 12.6587 17.125 10.6875 17.125H7.125V10Z" fill="white"/>
</svg>
